<?xml version="1.0"?>
<svg xmlns="http://www.w3.org/2000/svg" height="512px" viewBox="-49 0 487 487.322" width="512px" class=""><g><path d="m194.25 350.015625c20.941406-.023437 37.910156-16.992187 37.933594-37.933594v-21.96875c0-20.953125-16.984375-37.9375-37.9375-37.9375-20.949219 0-37.933594 16.984375-37.933594 37.9375v21.96875c.023438 20.941407 16.996094 37.910157 37.9375 37.933594zm0 0" data-original="#000000" class="active-path" data-old_color="#CF528F" fill="#FBFBFB"/><path d="m290.304688 312.710938v19.230468c-.0625 11.636719 6.109374 22.421875 16.179687 28.257813 10.066406 5.839843 22.492187 5.839843 32.5625 0 10.066406-5.835938 16.242187-16.621094 16.175781-28.257813v-19.230468c.066406-11.636719-6.109375-22.421876-16.175781-28.257813-10.070313-5.839844-22.496094-5.839844-32.5625 0-10.070313 5.835937-16.242187 16.621094-16.179687 28.257813zm0 0" data-original="#000000" class="active-path" data-old_color="#CF528F" fill="#FBFBFB"/><path d="m231.925781 378.835938c-9.253906 10.765624-22.753906 16.949218-36.949219 16.914062-14.199218-.03125-27.671874-6.273438-36.875-17.082031-22.335937 2.082031-39.414062 20.824219-39.421874 43.253906v65.398437h151.136718v-65.398437c-.023437-21.839844-16.234375-40.273437-37.890625-43.085937zm0 0" data-original="#000000" class="active-path" data-old_color="#CF528F" fill="#FBFBFB"/><path d="m65.171875 405.914062c-12.160156-.269531-23.632813-5.6875-31.566406-14.90625-18.945313 2.078126-33.324219 18.019532-33.445313 37.078126v37.269531h106.519532v-43.433594c-.015626-8.953125 2.144531-17.78125 6.300781-25.710937-4.320313-2.628907-9.132813-4.347657-14.140625-5.046876-8.457032 9.703126-20.804688 15.113282-33.667969 14.75zm0 0" data-original="#000000" class="active-path" data-old_color="#CF528F" fill="#FBFBFB"/><path d="m356.046875 391.164062c-8.195313 9.40625-20.066406 14.792969-32.539063 14.761719-.375 0-.75 0-1.125-.011719-12.164062-.269531-23.640624-5.6875-31.574218-14.90625-5.445313.542969-10.695313 2.296876-15.371094 5.132813 4.195312 7.945313 6.386719 16.796875 6.378906 25.78125v43.433594h106.34375v-37.269531c-.019531-18.585938-13.710937-34.328126-32.113281-36.921876zm0 0" data-original="#000000" class="active-path" data-old_color="#CF528F" fill="#FBFBFB"/><path d="m65.5625 364.398438c17.917969-.019532 32.4375-14.539063 32.457031-32.457032v-19.230468c.0625-11.636719-6.109375-22.421876-16.175781-28.257813-10.070312-5.839844-22.496094-5.839844-32.566406 0-10.066406 5.835937-16.238282 16.621094-16.175782 28.257813v19.230468c.023438 17.914063 14.542969 32.433594 32.460938 32.457032zm0 0" data-original="#000000" class="active-path" data-old_color="#CF528F" fill="#FBFBFB"/><path d="m287.703125 203.769531c3.316406 0 6-2.6875 6-6-.164063-10.867187 4.082031-21.339843 11.769531-29.023437s18.164063-11.921875 29.03125-11.75h.199219c10.746094-.023438 21.070313 4.179687 28.738281 11.707031 5.90625 6.359375 10.664063 20.851563 12 25.917969.769532 2.910156 3.582032 4.800781 6.570313 4.414062 2.988281-.386718 5.226562-2.929687 5.230469-5.941406v-.246094c-.058594-106.367187-86.609376-192.847656-192.960938-192.847656h-.367188c-106.398437.0703125-192.910156 86.691406-192.84375 193.101562.007813 3.011719 2.246094 5.550782 5.234376 5.9375 2.984374.386719 5.796874-1.503906 6.566406-4.414062 1.332031-5.050781 6.058594-19.472656 11.964844-25.875 7.796874-7.519531 18.203124-11.730469 29.035156-11.753906h.199218c10.75-.023438 21.074219 4.183594 28.742188 11.710937 7.542969 7.800781 11.773438 18.214844 11.800781 29.0625 0 3.3125 2.6875 6 6 6s6-2.6875 6-6c-.167969-10.867187 4.078125-21.339843 11.769531-29.023437 7.6875-7.683594 18.164063-11.921875 29.03125-11.75h.199219c10.75-.027344 21.078125 4.179687 28.746094 11.707031 7.542969 7.800781 11.773437 18.214844 11.800781 29.0625v27.855469c0 3.316406 2.6875 6 6 6 3.316406 0 6-2.683594 6-6v-27.855469c-.164062-10.867187 4.082032-21.339844 11.769532-29.023437 7.6875-7.683594 18.164062-11.917969 29.03125-11.746094h.199218c10.746094-.023438 21.074219 4.183594 28.742188 11.714844 7.539062 7.796874 11.769531 18.210937 11.796875 29.058593.003906 3.316407 2.691406 6.003907 6.003906 6zm0 0" data-original="#000000" class="active-path" data-old_color="#CF528F" fill="#FBFBFB"/></g> </svg>
